# xmcd
#
# Track frame offsets: 
#        150
#        11100
#        30751
#        43575
#        62313
#        74490
#        92636
#        107933
#        120040
#        134603
#        145664
#        159032
#        173048
#
# Disc length: 2697 seconds
#
# Revision: 0
# Processed by: cddbd v1.5.2PL0 Copyright (c) Steve Scherf et al.
# Submitted via: ExactAudioCopy v0.99pb3
#
DISCID=9b0a870d
DTITLE=Zack Driscoll and Three Quarter Time - The Truth
DYEAR=2004
DGENRE=Bluegrass
TTITLE0=Crying Holy Unto My Lord
TTITLE1=The Old Cross Road
TTITLE2=The One Who Died For Me
TTITLE3=Three Rusty Nails
TTITLE4=Take Me In A Lifeboat
TTITLE5=So I Will
TTITLE6=What Do You Know
TTITLE7=Clinging To The Robe Of God
TTITLE8=Working On A Building
TTITLE9=Would Be Ashamed Of Me
TTITLE10=In The Garden
TTITLE11=The Old Rugged Cross
TTITLE12=Shouting On The Hills Of Glory
EXTD=
EXTT0=
EXTT1=
EXTT2=
EXTT3=
EXTT4=
EXTT5=
EXTT6=
EXTT7=
EXTT8=
EXTT9=
EXTT10=
EXTT11=
EXTT12=
PLAYORDER=
